<svg width="376" height="376" viewBox="0 0 376 376" fill="none" xmlns="http://www.w3.org/2000/svg">
<path d="M188 0.5C84.6042 0.5 0.5 84.625 0.5 188C0.5 291.375 84.6042 375.5 188 375.5C291.396 375.5 375.5 291.375 375.5 188C375.5 84.625 291.396 0.5 188 0.5ZM188 333.833C107.604 333.833 42.1667 268.417 42.1667 188C42.1667 107.583 107.604 42.1667 188 42.1667C268.396 42.1667 333.833 107.583 333.833 188C333.833 268.417 268.396 333.833 188 333.833ZM202.729 188L257.854 132.875C259.807 130.922 260.904 128.273 260.904 125.51C260.904 122.748 259.807 120.099 257.854 118.146C255.901 116.193 253.252 115.096 250.49 115.096C247.727 115.096 245.078 116.193 243.125 118.146L188 173.271L132.875 118.125C130.91 116.228 128.279 115.178 125.548 115.201C122.817 115.225 120.204 116.321 118.273 118.252C116.341 120.183 115.246 122.796 115.222 125.527C115.198 128.258 116.248 130.89 118.146 132.854L173.271 188L118.146 243.125C116.19 245.078 115.09 247.728 115.088 250.493C115.086 253.257 116.182 255.909 118.135 257.865C120.089 259.821 122.739 260.921 125.503 260.922C128.267 260.924 130.919 259.828 132.875 257.875L188 202.729L243.125 257.854C244.085 258.85 245.233 259.645 246.503 260.193C247.773 260.741 249.139 261.03 250.522 261.044C251.906 261.058 253.277 260.796 254.558 260.274C255.839 259.752 257.003 258.98 257.983 258.004C258.962 257.027 259.737 255.865 260.263 254.586C260.788 253.307 261.054 251.935 261.044 250.552C261.034 249.169 260.748 247.802 260.204 246.53C259.66 245.259 258.868 244.108 257.875 243.146L202.729 188Z" fill="#FF0000"/>
</svg>
